<svg width="410" height="650" viewBox="0 0 410 650" fill="none" xmlns="http://www.w3.org/2000/svg">
<path fill-rule="evenodd" clip-rule="evenodd" d="M0 0H410V300C396.193 300 385 311.193 385 325C385 338.807 396.193 350 410 350V650H0V350C13.8071 350 25 338.807 25 325C25 311.193 13.8071 300 0 300V0Z" fill="#0053BA"/>
<path fill-rule="evenodd" clip-rule="evenodd" d="M400.886 348.287C391.586 344.644 385 335.591 385 325C385 321.444 385.742 318.062 387.08 315H22.9196C24.2576 318.062 24.9999 321.444 24.9999 325C24.9999 335.511 18.5137 344.506 9.32568 348.203L210.499 406.5L400.886 348.287Z" fill="#226E6A"/>
<path fill-rule="evenodd" clip-rule="evenodd" d="M0 0H410V300C396.193 300 385 311.193 385 325H25C25 311.193 13.8071 300 0 300V0Z" fill="#226E6A"/>
</svg>
